<?xml version="1.0" encoding="UTF-8"?>
<svg version="1.1" xmlns="http://www.w3.org/2000/svg" width="1024" height="1024">
<path d="M0 0 C337.92 0 675.84 0 1024 0 C1024 337.92 1024 675.84 1024 1024 C686.08 1024 348.16 1024 0 1024 C0 686.08 0 348.16 0 0 Z " fill="#0A0A0A" transform="translate(0,0)"/>
<path d="M0 0 C1.62214465 -0.00599131 3.24428645 -0.01279824 4.86642456 -0.02035522 C9.25732919 -0.03796622 13.64815577 -0.04270868 18.0390923 -0.0439868 C20.78910006 -0.04541233 23.53908823 -0.04968964 26.28909111 -0.05498123 C35.9025383 -0.07346897 45.51593016 -0.08165387 55.12939453 -0.08007812 C64.05777348 -0.07887875 72.9859099 -0.09994424 81.91422755 -0.13156545 C89.60459234 -0.157821 97.29487841 -0.16844147 104.98528761 -0.16716731 C109.5671479 -0.16666017 114.14879276 -0.17220411 118.73060799 -0.19352341 C123.04735474 -0.21306156 127.36368409 -0.21292531 131.68044662 -0.19849014 C133.25285269 -0.19641973 134.82528597 -0.20099567 136.39764595 -0.21321106 C158.01758327 -0.37011038 175.36451273 6.26508936 191.18334961 21.37646484 C202.0350456 32.75699592 210.20023968 49.21553501 210.09741211 65.15380859 C210.09418945 66.04003906 210.0909668 66.92626953 210.08764648 67.83935547 C210.07926758 68.75136719 210.07088867 69.66337891 210.06225586 70.60302734 C210.05774414 71.534375 210.05323242 72.46572266 210.04858398 73.42529297 C210.0368482 75.71377107 210.02042949 78.00211542 209.99975586 80.29052734 C210.91756836 80.24412109 211.83538086 80.19771484 212.78100586 80.14990234 C226.20994636 79.75493351 226.20994636 79.75493351 231.99975586 84.29052734 C235.55165129 88.1156455 237.11746707 90.57041419 237.16088867 95.73681641 C237.17049622 96.65827454 237.18010376 97.57973267 237.19000244 98.52911377 C237.19637726 100.02749786 237.19637726 100.02749786 237.20288086 101.55615234 C237.20858093 102.58230652 237.21428101 103.60846069 237.22015381 104.66571045 C237.22961289 106.84125739 237.23614138 109.01681871 237.23999023 111.19238281 C237.2496759 114.51311472 237.28068291 117.83322257 237.31225586 121.15380859 C237.31878784 123.26708617 237.32403755 125.38036817 237.32788086 127.49365234 C237.34022766 128.48447815 237.35257446 129.47530396 237.36529541 130.49615479 C237.34808562 135.85255691 237.04989307 139.6815528 233.99975586 144.29052734 C228.55079381 149.32033847 224.59292467 150.59598329 217.24975586 150.41552734 C216.55237305 150.40650391 215.85499023 150.39748047 215.13647461 150.38818359 C213.42408628 150.36472622 211.71187582 150.32885839 209.99975586 150.29052734 C210.09256836 151.80646484 210.09256836 151.80646484 210.18725586 153.35302734 C210.12280651 171.55996792 202.26070375 188.90797187 189.87475586 201.97802734 C179.16998428 212.2428768 165.76503132 219.22439665 150.99975586 221.29052734 C149.77385742 221.23251953 149.77385742 221.23251953 148.52319336 221.17333984 C139.61317705 220.93679074 135.08169877 225.82220803 128.93725586 231.57568359 C128.29530273 232.18557129 127.65334961 232.79545898 126.99194336 233.42382812 C123.66462409 236.5415589 120.20396414 239.50258683 116.74975586 242.47802734 C116.11779297 243.03006836 115.48583008 243.58210937 114.8347168 244.15087891 C107.45634298 250.57824441 107.45634298 250.57824441 102.49975586 250.60302734 C101.33959961 250.62816406 101.33959961 250.62816406 100.15600586 250.65380859 C97.42824555 250.19424028 96.69878685 249.44335167 94.99975586 247.29052734 C94.64331055 245.20922852 94.64331055 245.20922852 94.67163086 242.83349609 C94.67678711 241.96789062 94.68194336 241.10228516 94.68725586 240.21044922 C94.70788086 239.30875 94.72850586 238.40705078 94.74975586 237.47802734 C94.75491211 236.58792969 94.76006836 235.69783203 94.76538086 234.78076172 C94.82016993 230.16135862 95.21477561 225.84993063 95.99975586 221.29052734 C95.16736499 221.29467541 95.16736499 221.29467541 94.31815815 221.29890728 C80.76102435 221.36541266 67.20391947 221.41473455 53.64665699 221.44596386 C47.09022222 221.46157708 40.53390576 221.48273584 33.97753906 221.5168457 C27.64274124 221.5495942 21.30805676 221.56741298 14.97318077 221.57515907 C12.56403509 221.58067485 10.15489516 221.59144536 7.74579811 221.60771751 C-21.55580155 221.79764825 -21.55580155 221.79764825 -35.18774414 214.66552734 C-35.86063477 214.31997803 -36.53352539 213.97442871 -37.22680664 213.6184082 C-43.32536643 210.35330836 -48.21815147 206.28841842 -53.00024414 201.29052734 C-53.69375977 200.61634766 -54.38727539 199.94216797 -55.10180664 199.24755859 C-64.1554954 189.93169738 -69.76412106 178.01329661 -72.00024414 165.29052734 C-72.22711914 164.05302734 -72.45399414 162.81552734 -72.68774414 161.54052734 C-73.05151351 157.75732585 -73.06690022 154.08992365 -73.00024414 150.29052734 C-73.99024414 150.33693359 -74.98024414 150.38333984 -76.00024414 150.43115234 C-90.22932666 150.90131193 -90.22932666 150.90131193 -96.00024414 146.29052734 C-99.80357717 142.29215159 -101.11093644 139.18808212 -101.17724609 133.73071289 C-101.19008133 132.80933029 -101.20291656 131.88794769 -101.21614075 130.93864441 C-101.22352768 129.94488297 -101.23091461 128.95112152 -101.23852539 127.92724609 C-101.24659714 126.90250687 -101.25466888 125.87776764 -101.26298523 124.82197571 C-101.27681856 122.65241179 -101.28754407 120.48282618 -101.29541016 118.31323242 C-101.31262367 115.00120676 -101.35651738 111.69017915 -101.40063477 108.37841797 C-101.41076189 106.26970134 -101.41927793 104.16097624 -101.42602539 102.05224609 C-101.44353348 101.06455734 -101.46104156 100.07686859 -101.4790802 99.05924988 C-101.46090252 93.27558793 -100.93629968 89.8427002 -97.00024414 85.29052734 C-92.00195953 80.86389405 -87.96916055 80.77746223 -81.62524414 81.04052734 C-80.79379883 81.05857422 -79.96235352 81.07662109 -79.10571289 81.09521484 C-77.0700534 81.14201161 -75.03499324 81.21374436 -73.00024414 81.29052734 C-73.01595459 80.68692383 -73.03166504 80.08332031 -73.04785156 79.46142578 C-73.54087954 57.63505632 -70.14373128 38.97516583 -55.00024414 22.29052734 C-54.39696289 21.60732422 -53.79368164 20.92412109 -53.17211914 20.22021484 C-38.73981112 4.7905522 -20.3513178 -0.01501446 0 0 Z " fill="#0B0B0B" transform="translate(444.000244140625,345.70947265625)"/>
<path d="M0 0 C1.62214465 -0.00599131 3.24428645 -0.01279824 4.86642456 -0.02035522 C9.25732919 -0.03796622 13.64815577 -0.04270868 18.0390923 -0.0439868 C20.78910006 -0.04541233 23.53908823 -0.04968964 26.28909111 -0.05498123 C35.9025383 -0.07346897 45.51593016 -0.08165387 55.12939453 -0.08007812 C64.05777348 -0.07887875 72.9859099 -0.09994424 81.91422755 -0.13156545 C89.60459234 -0.157821 97.29487841 -0.16844147 104.98528761 -0.16716731 C109.5671479 -0.16666017 114.14879276 -0.17220411 118.73060799 -0.19352341 C123.04735474 -0.21306156 127.36368409 -0.21292531 131.68044662 -0.19849014 C133.25285269 -0.19641973 134.82528597 -0.20099567 136.39764595 -0.21321106 C158.01758327 -0.37011038 175.36451273 6.26508936 191.18334961 21.37646484 C202.0350456 32.75699592 210.20023968 49.21553501 210.09741211 65.15380859 C210.09418945 66.04003906 210.0909668 66.92626953 210.08764648 67.83935547 C210.07926758 68.75136719 210.07088867 69.66337891 210.06225586 70.60302734 C210.05774414 71.534375 210.05323242 72.46572266 210.04858398 73.42529297 C210.0368482 75.71377107 210.02042949 78.00211542 209.99975586 80.29052734 C210.91756836 80.24412109 211.83538086 80.19771484 212.78100586 80.14990234 C226.20994636 79.75493351 226.20994636 79.75493351 231.99975586 84.29052734 C235.55165129 88.1156455 237.11746707 90.57041419 237.16088867 95.73681641 C237.17049622 96.65827454 237.18010376 97.57973267 237.19000244 98.52911377 C237.19637726 100.02749786 237.19637726 100.02749786 237.20288086 101.55615234 C237.20858093 102.58230652 237.21428101 103.60846069 237.22015381 104.66571045 C237.22961289 106.84125739 237.23614138 109.01681871 237.23999023 111.19238281 C237.2496759 114.51311472 237.28068291 117.83322257 237.31225586 121.15380859 C237.31878784 123.26708617 237.32403755 125.38036817 237.32788086 127.49365234 C237.34022766 128.48447815 237.35257446 129.47530396 237.36529541 130.49615479 C237.34808562 135.85255691 237.04989307 139.6815528 233.99975586 144.29052734 C228.55079381 149.32033847 224.59292467 150.59598329 217.24975586 150.41552734 C216.55237305 150.40650391 215.85499023 150.39748047 215.13647461 150.38818359 C213.42408628 150.36472622 211.71187582 150.32885839 209.99975586 150.29052734 C210.09256836 151.80646484 210.09256836 151.80646484 210.18725586 153.35302734 C210.12280651 171.55996792 202.26070375 188.90797187 189.87475586 201.97802734 C179.16998428 212.2428768 165.76503132 219.22439665 150.99975586 221.29052734 C149.77385742 221.23251953 149.77385742 221.23251953 148.52319336 221.17333984 C139.61317705 220.93679074 135.08169877 225.82220803 128.93725586 231.57568359 C128.29530273 232.18557129 127.65334961 232.79545898 126.99194336 233.42382812 C123.66462409 236.5415589 120.20396414 239.50258683 116.74975586 242.47802734 C116.11779297 243.03006836 115.48583008 243.58210937 114.8347168 244.15087891 C107.45634298 250.57824441 107.45634298 250.57824441 102.49975586 250.60302734 C101.33959961 250.62816406 101.33959961 250.62816406 100.15600586 250.65380859 C97.42824555 250.19424028 96.69878685 249.44335167 94.99975586 247.29052734 C94.64331055 245.20922852 94.64331055 245.20922852 94.67163086 242.83349609 C94.67678711 241.96789062 94.68194336 241.10228516 94.68725586 240.21044922 C94.70788086 239.30875 94.72850586 238.40705078 94.74975586 237.47802734 C94.75491211 236.58792969 94.76006836 235.69783203 94.76538086 234.78076172 C94.82016993 230.16135862 95.21477561 225.84993063 95.99975586 221.29052734 C95.16736499 221.29467541 95.16736499 221.29467541 94.31815815 221.29890728 C80.76102435 221.36541266 67.20391947 221.41473455 53.64665699 221.44596386 C47.09022222 221.46157708 40.53390576 221.48273584 33.97753906 221.5168457 C27.64274124 221.5495942 21.30805676 221.56741298 14.97318077 221.57515907 C12.56403509 221.58067485 10.15489516 221.59144536 7.74579811 221.60771751 C-21.55580155 221.79764825 -21.55580155 221.79764825 -35.18774414 214.66552734 C-35.86063477 214.31997803 -36.53352539 213.97442871 -37.22680664 213.6184082 C-43.32536643 210.35330836 -48.21815147 206.28841842 -53.00024414 201.29052734 C-53.69375977 200.61634766 -54.38727539 199.94216797 -55.10180664 199.24755859 C-64.1554954 189.93169738 -69.76412106 178.01329661 -72.00024414 165.29052734 C-72.22711914 164.05302734 -72.45399414 162.81552734 -72.68774414 161.54052734 C-73.05151351 157.75732585 -73.06690022 154.08992365 -73.00024414 150.29052734 C-73.99024414 150.33693359 -74.98024414 150.38333984 -76.00024414 150.43115234 C-90.22932666 150.90131193 -90.22932666 150.90131193 -96.00024414 146.29052734 C-99.80357717 142.29215159 -101.11093644 139.18808212 -101.17724609 133.73071289 C-101.19008133 132.80933029 -101.20291656 131.88794769 -101.21614075 130.93864441 C-101.22352768 129.94488297 -101.23091461 128.95112152 -101.23852539 127.92724609 C-101.24659714 126.90250687 -101.25466888 125.87776764 -101.26298523 124.82197571 C-101.27681856 122.65241179 -101.28754407 120.48282618 -101.29541016 118.31323242 C-101.31262367 115.00120676 -101.35651738 111.69017915 -101.40063477 108.37841797 C-101.41076189 106.26970134 -101.41927793 104.16097624 -101.42602539 102.05224609 C-101.44353348 101.06455734 -101.46104156 100.07686859 -101.4790802 99.05924988 C-101.46090252 93.27558793 -100.93629968 89.8427002 -97.00024414 85.29052734 C-92.00195953 80.86389405 -87.96916055 80.77746223 -81.62524414 81.04052734 C-80.79379883 81.05857422 -79.96235352 81.07662109 -79.10571289 81.09521484 C-77.0700534 81.14201161 -75.03499324 81.21374436 -73.00024414 81.29052734 C-73.01595459 80.68692383 -73.03166504 80.08332031 -73.04785156 79.46142578 C-73.54087954 57.63505632 -70.14373128 38.97516583 -55.00024414 22.29052734 C-54.39696289 21.60732422 -53.79368164 20.92412109 -53.17211914 20.22021484 C-38.73981112 4.7905522 -20.3513178 -0.01501446 0 0 Z M-40.28540039 40.91162109 C-50.11181528 54.54325359 -50.45599594 68.92385139 -50.39868164 85.06787109 C-50.40070657 87.08606572 -50.40362148 89.10425964 -50.40737915 91.12245178 C-50.41178379 95.33764664 -50.40543231 99.55264982 -50.39135742 103.76782227 C-50.37427784 109.14168809 -50.384111 114.5151039 -50.40207481 119.88895321 C-50.41297251 124.05252912 -50.40943879 128.21600029 -50.40169144 132.37957954 C-50.39970537 134.3597068 -50.40209198 136.3398439 -50.4091301 138.31995964 C-50.46023311 156.73627208 -48.60320133 172.13330051 -35.37915039 186.03271484 C-24.04770842 196.78735107 -11.19845468 198.89660593 3.93505859 198.82397461 C5.50193081 198.83104836 7.0687962 198.83979944 8.63565063 198.8500824 C12.85686642 198.87242288 17.07770455 198.86967298 21.29895663 198.86076093 C24.83746622 198.85562006 28.37590676 198.86296855 31.91440922 198.870233 C40.26884828 198.88718323 48.62310446 198.88371549 56.97753906 198.86694336 C65.56530563 198.85002457 74.15256377 198.86586422 82.74027485 198.89816624 C90.14366909 198.92494737 97.54690589 198.9321153 104.95034367 198.92365116 C109.35884555 198.91874699 113.76704178 198.92080036 118.17550468 198.94143867 C122.32333899 198.95993072 126.47044773 198.95367431 130.61824417 198.92923927 C132.13020665 198.92427399 133.64222575 198.92760821 135.15414238 198.94038773 C149.91724695 199.05519169 161.83857683 195.16387802 172.99975586 185.29052734 C179.94454354 178.24051561 186.08616958 167.35892083 186.14692688 157.25881958 C186.15408218 156.44048141 186.16123749 155.62214325 186.16860962 154.77900696 C186.17129852 153.88449326 186.17398743 152.98997955 186.17675781 152.06835938 C186.18661461 150.65061974 186.18661461 150.65061974 186.19667053 149.20423889 C186.21641466 146.06893839 186.22807303 142.93368598 186.23803711 139.79833984 C186.24211264 138.72509335 186.24618816 137.65184685 186.25038719 136.54607773 C186.27125974 130.85770612 186.28555234 125.16935867 186.29492188 119.48095703 C186.30594596 113.62939485 186.34029624 107.77821717 186.38009357 101.92679024 C186.40636296 97.4088983 186.4146232 92.89109619 186.41820335 88.37313461 C186.42304824 86.21796976 186.43460168 84.06280835 186.45324135 81.90771866 C186.59997966 63.80651919 185.11637629 49.71993944 172.12475586 36.04052734 C160.45115073 24.96049536 146.87898334 22.67878055 131.21044922 22.77294922 C129.67136477 22.7675146 128.13228553 22.7603845 126.59321594 22.75170898 C122.45268388 22.73363307 118.31255505 22.74047683 114.17201686 22.75322533 C109.81612957 22.76343355 105.46027419 22.7539383 101.10438538 22.74768066 C93.79397454 22.74042761 86.48372598 22.74993093 79.17333984 22.76904297 C70.74861497 22.79081539 62.32427735 22.78374827 53.89956182 22.76173735 C46.63544453 22.743526 39.37144312 22.74105268 32.10731035 22.75149202 C27.78218374 22.75769452 23.45723856 22.75865262 19.13212395 22.74534607 C15.06478757 22.73370387 10.99794569 22.74196403 6.93066216 22.7649231 C5.44730954 22.77016554 3.96391455 22.76877398 2.48057938 22.75987244 C-14.48962931 22.66750216 -29.1862085 27.49726034 -40.28540039 40.91162109 Z " fill="#F6F6F6" transform="translate(444.000244140625,345.70947265625)"/>
<path d="M0 0 C1.02534851 -0.01226624 1.02534851 -0.01226624 2.07141113 -0.02478027 C4.32949983 -0.0495489 6.58752567 -0.06613473 8.84570312 -0.08056641 C10.00925072 -0.08855192 10.00925072 -0.08855192 11.19630432 -0.09669876 C15.3079428 -0.12340257 19.41955133 -0.14278004 23.53125 -0.15722656 C26.91434032 -0.17052029 30.29682096 -0.19829111 33.6796875 -0.23925781 C37.78223742 -0.28892678 41.88423814 -0.31338966 45.98707581 -0.32045364 C47.54022727 -0.32711288 49.09336908 -0.3421936 50.64634705 -0.36634445 C65.11934407 -0.57844813 76.34382901 2.85074066 86.99414062 12.96630859 C97.14300499 23.63786126 97.93393416 34.67715171 97.77880859 48.73510742 C97.75203581 51.62145651 97.7786277 54.50390694 97.81054688 57.39013672 C97.83903472 71.74832067 95.8421279 82.33851141 85.52148438 93.00146484 C77.44745357 100.39058602 69.53949461 104.44598833 58.51367188 104.35302734 C57.81441086 104.34939682 57.11514984 104.3457663 56.3946991 104.34202576 C53.46704087 104.31727684 50.54243752 104.28165066 47.61645508 104.17602539 C39.35603817 103.90717612 33.38455463 104.07455614 26.93554688 109.96240234 C25.32300122 111.69694185 23.71991738 113.44033132 22.12695312 115.19287109 C20.27791105 116.7655772 18.40563468 118.31176431 16.50195312 119.81787109 C12.19327147 123.27097168 8.14979756 126.90443156 4.19726562 130.75927734 C1.66239077 132.51455861 0.14689046 132.48223791 -2.87304688 132.19287109 C-3.05755713 113.37282554 -3.05755713 113.37282554 -1.87304688 104.19287109 C-3.11054688 104.15162109 -4.34804688 104.11037109 -5.62304688 104.06787109 C-15.33396738 102.93798412 -23.41173686 97.66840431 -29.96679688 90.62646484 C-32.97612665 86.78463605 -35.08147879 82.71855916 -36.87304688 78.19287109 C-37.2154541 77.33604736 -37.55786133 76.47922363 -37.91064453 75.59643555 C-39.09449682 71.4097068 -39.21535091 67.60764673 -39.24414062 63.27880859 C-39.2531691 62.42791656 -39.26219757 61.57702454 -39.27149963 60.7003479 C-39.28596101 58.90345755 -39.29487861 57.10651503 -39.29858398 55.30957031 C-39.3104217 52.59655876 -39.35959539 49.8858683 -39.41015625 47.17333984 C-39.54643974 32.5764049 -36.67304485 21.31799214 -26.28710938 10.54833984 C-18.73760059 3.54820846 -10.18425779 0.10613797 0 0 Z " fill="#F7F7F7" transform="translate(511.873046875,199.80712890625)"/>
<path d="M0 0 C10.60690623 9.0370036 16.9979878 20.92087875 18.36206055 34.85351562 C18.4952256 38.09744618 18.52625791 41.31992893 18.49609375 44.56640625 C18.48852051 45.70988525 18.48094727 46.85336426 18.47314453 48.03149414 C18.18933778 62.5978237 14.47015182 76.05117965 4.43359375 87.06640625 C-6.8874173 97.64861811 -20.68511351 99.43380792 -35.46484375 99.12109375 C-47.44007141 98.54422081 -55.81827239 93.49038908 -63.94140625 84.75390625 C-75.21494715 71.42117614 -77.06147625 55.08006878 -76.15722656 38.20507812 C-74.92443574 24.20369815 -70.05307164 11.74540356 -59.74609375 2.01953125 C-43.21345195 -11.33552759 -17.33923463 -12.69422866 0 0 Z " fill="#F6F6F6" transform="translate(658.94140625,659.24609375)"/>
<path d="M0 0 C56.19921875 0 56.19921875 0 69.16015625 12 C79.70410796 23.03665974 82.39415517 36.01774915 82.3125 50.8125 C82.30686035 51.87621826 82.3012207 52.93993652 82.29541016 54.03588867 C82.08145873 67.84422872 78.93368322 79.74568464 69.5 90.25 C50.67285909 107.81236177 23.80412449 103 0 103 C0 69.01 0 35.02 0 0 Z " fill="#F7F7F7" transform="translate(210,654)"/>
<path d="M0 0 C56.55640535 0 56.55640535 0 67.15625 10.04296875 C73.79388334 17.02931833 76.10477916 22.26137388 76.375 31.875 C76.09212845 42.47702585 73.62423465 50.38925958 66 58 C63.3830892 60.07027283 60.7080501 62.05089127 58 64 C58.42297363 64.76030518 58.84594727 65.52061035 59.28173828 66.30395508 C60.88121832 69.17956954 62.4802892 72.05541078 64.07910156 74.93139648 C64.76546633 76.16585972 65.45198465 77.40023759 66.13867188 78.63452148 C67.7946496 81.61116566 69.44876503 84.58881197 71.09863281 87.56884766 C72.33807414 89.8055077 73.58200236 92.03968902 74.83105469 94.27099609 C75.37922852 95.25793457 75.92740234 96.24487305 76.4921875 97.26171875 C76.97800293 98.13143311 77.46381836 99.00114746 77.96435547 99.8972168 C79 102 79 102 79 104 C71.41 104 63.82 104 56 104 C54.87980469 101.82019531 53.75960937 99.64039063 52.60546875 97.39453125 C51.51366826 95.27282266 50.42129056 93.1514122 49.32885742 91.0300293 C48.57271982 89.56093885 47.81717817 88.09154149 47.06225586 86.62182617 C45.97407858 84.50357469 44.88372926 82.38645346 43.79296875 80.26953125 C43.45847214 79.61725052 43.12397552 78.96496979 42.77934265 78.29292297 C40.96217446 74.77181122 39.04275734 71.40459557 37 68 C31.72 67.67 26.44 67.34 21 67 C21 79.21 21 91.42 21 104 C14.07 104 7.14 104 0 104 C0 69.68 0 35.36 0 0 Z " fill="#F6F6F6" transform="translate(492,653)"/>
<path d="M0 0 C22.11 0 44.22 0 67 0 C67 5.61 67 11.22 67 17 C51.49 17 35.98 17 20 17 C20 25.25 20 33.5 20 42 C34.19 42 48.38 42 63 42 C63 47.94 63 53.88 63 60 C48.81 60 34.62 60 20 60 C20 67.92 20 75.84 20 84 C35.84 84 51.68 84 68 84 C68 89.94 68 95.88 68 102 C45.56 102 23.12 102 0 102 C0 68.34 0 34.68 0 0 Z " fill="#F6F6F7" transform="translate(310,654)"/>
<path d="M0 0 C27.06 0 54.12 0 82 0 C82 6.27 82 12.54 82 19 C72.1 19 62.2 19 52 19 C52 47.05 52 75.1 52 104 C45.07 104 38.14 104 31 104 C31 75.95 31 47.9 31 19 C20.77 19 10.54 19 0 19 C0 12.73 0 6.46 0 0 Z " fill="#F2F2F2" transform="translate(393,653)"/>
<path d="M0 0 C27.06 0 54.12 0 82 0 C82 5.94 82 11.88 82 18 C71.77 18 61.54 18 51 18 C51 46.38 51 74.76 51 104 C44.07 104 37.14 104 30 104 C30 75.95 30 47.9 30 19 C20.1 19 10.2 19 0 19 C0 12.73 0 6.46 0 0 Z " fill="#F4F4F5" transform="translate(734,653)"/>
<path d="M0 0 C7.53674677 4.77178642 10.55684065 11.34471329 12.59204102 19.82324219 C13.27120763 23.44708992 13.34012031 27.00879519 13.3125 30.6875 C13.30512817 31.85998291 13.30512817 31.85998291 13.29760742 33.05615234 C13.07863062 44.02745181 11.23181627 54.26756691 3.58984375 62.5234375 C-2.37157466 68.02383956 -9.31575066 68.47308956 -17.06640625 68.30859375 C-23.1320018 67.6705351 -27.18999178 65.15473373 -31.3125 60.75 C-37.62699815 52.7710825 -38.2005883 43.63381119 -38.25 33.875 C-38.270625 32.87984375 -38.29125 31.8846875 -38.3125 30.859375 C-38.36492157 20.82064478 -36.25140116 12.01891042 -30 4 C-21.39041467 -4.38301729 -10.48930265 -5.08165485 0 0 Z " fill="#0C0C0C" transform="translate(643,672)"/>
<path d="M0 0 C22.92307692 0 22.92307692 0 32.875 5.625 C40.64825428 14.31275478 42.49673147 25.85231346 42.25390625 37.16796875 C41.39530197 46.74470875 39.01485971 55.90976024 31.4375 62.25 C21.62639998 68.98275488 11.95541648 68 0 68 C0 45.56 0 23.12 0 0 Z " fill="#0E0E0E" transform="translate(230,671)"/>
<path d="M0 0 C6.93 0 13.86 0 21 0 C21 34.32 21 68.64 21 104 C14.07 104 7.14 104 0 104 C0 69.68 0 35.36 0 0 Z " fill="#F7F7F7" transform="translate(696,653)"/>
<path d="M0 0 C5.88051608 3.13997368 9.53647223 8.09226077 12.9375 13.6875 C15.02528535 21.17896507 15.24528688 28.69370639 12 35.875 C8.1375297 42.52883539 3.2933817 47.02280327 -4.0625 49.4375 C-12.38390501 51.46402177 -18.44943124 50.40881534 -26 46.5 C-32.11267218 42.57208517 -35.49713763 37.49600194 -37.578125 30.578125 C-39.12352106 22.96561846 -38.36219893 16.50264216 -34.5546875 9.7265625 C-26.6841647 -1.54529176 -12.80215507 -4.95780532 0 0 Z " fill="#F6F6F6" transform="translate(578,428.5)"/>
<path d="M0 0 C5.2678485 3.85144724 9.67330625 9.05947172 11.12109375 15.55078125 C12.14982345 24.272123 11.32582518 31.33215876 6.12109375 38.55078125 C0.25565091 44.98912781 -6.47879958 48.02135903 -15.06640625 48.86328125 C-23.12846381 48.20245686 -30.57543795 44.74286259 -35.87890625 38.55078125 C-40.48497413 31.15017829 -41.79824811 24.22640958 -40.87890625 15.55078125 C-38.23049227 7.0354771 -33.22147409 2.20949625 -25.81640625 -2.32421875 C-17.41860198 -5.46393837 -7.64070191 -4.45393954 0 0 Z " fill="#F6F6F6" transform="translate(473.87890625,430.44921875)"/>
<path d="M0 0 C6.93489554 3.9077586 11.3508834 9.27859002 13.6875 16.9375 C14.85322024 24.6053487 13.10052052 30.60439123 8.6875 36.9375 C4.17378013 41.86073074 -0.30795996 45.39940763 -7.07421875 46.30859375 C-15.44236345 46.49852494 -21.89053808 44.96497154 -28.1953125 39.22265625 C-33.98597105 32.83055248 -34.834939 26.96406969 -34.68359375 18.453125 C-34.03992497 12.3552102 -31.83281022 8.29012829 -27.375 4.12890625 C-19.04648551 -2.44872735 -9.9446422 -4.56672391 0 0 Z " fill="#0C0C0C" transform="translate(552.3125,232.0625)"/>
<path d="M0 0 C3.67125 -0.061875 7.3425 -0.12375 11.125 -0.1875 C12.84420654 -0.22846802 12.84420654 -0.22846802 14.59814453 -0.27026367 C20.13625217 -0.3154192 24.2694756 -0.23829394 29 3 C33.32359245 7.674154 34.38690025 11.43698693 34.265625 17.65234375 C33.82394538 21.55601214 32.63918341 24.10755279 30 27 C23.5770537 31.13258671 17.37840857 31.51711863 9.9375 31.25 C6.658125 31.1675 3.37875 31.085 0 31 C0 20.77 0 10.54 0 0 Z " fill="#0D0D0D" transform="translate(513,671)"/>
<path d="M0 0 C6.93 0 13.86 0 21 0 C21 34.32 21 68.64 21 104 C14.07 104 7.14 104 0 104 C0 69.68 0 35.36 0 0 Z M3 3 C2.79787188 12.20805885 2.6097753 21.41633628 2.4375 30.625 C2.42476673 31.30510635 2.41203346 31.98521271 2.39891434 32.68592834 C1.97752647 55.48473177 2.06728497 78.21305438 3 101 C7.95 101 12.9 101 18 101 C18 68.66 18 36.32 18 3 C13.05 3 8.1 3 3 3 Z " fill="#F4F3F3" transform="translate(696,653)"/>
<path d="M0 0 C23.1 0.33 46.2 0.66 70 1 C70 1.33 70 1.66 70 2 C47.89 2 25.78 2 3 2 C3 35.66 3 69.32 3 104 C25.44 104 47.88 104 71 104 C71 98.06 71 92.12 71 86 C55.16 86 39.32 86 23 86 C23 78.08 23 70.16 23 62 C25.64 62 28.28 62 31 62 C30.01 62.66 29.02 63.32 28 64 C26.515 63.505 26.515 63.505 25 63 C25 69.93 25 76.86 25 84 C40.51 84 56.02 84 72 84 C73.16581918 86.33163836 73.12905609 87.72153482 73.1328125 90.31640625 C73.13410156 91.16267578 73.13539063 92.00894531 73.13671875 92.88085938 C73.13285156 93.76580078 73.12898438 94.65074219 73.125 95.5625 C73.12886719 96.45130859 73.13273437 97.34011719 73.13671875 98.25585938 C73.13542969 99.10083984 73.13414062 99.94582031 73.1328125 100.81640625 C73.13168457 101.59443604 73.13055664 102.37246582 73.12939453 103.17407227 C73 105 73 105 72 106 C69.83294076 106.11010004 67.66225281 106.14913923 65.49243164 106.16113281 C64.81274826 106.16609772 64.13306488 106.17106262 63.43278503 106.17617798 C61.17523197 106.19083184 58.91774914 106.19760657 56.66015625 106.203125 C55.0969594 106.2088734 53.53376258 106.21463116 51.9705658 106.22039795 C48.6894396 106.23091685 45.40833797 106.23675381 42.12719727 106.24023438 C37.91567375 106.24572382 33.7044728 106.26975742 29.49305058 106.29820633 C26.26320944 106.31679714 23.03344658 106.32203637 19.80355644 106.32357025 C18.25055615 106.32660493 16.6975575 106.33466075 15.14460945 106.34775543 C12.97514166 106.36474401 10.80646955 106.36295404 8.63696289 106.35644531 C6.78283531 106.36191376 6.78283531 106.36191376 4.89125061 106.36749268 C3.93713791 106.24622009 2.98302521 106.12494751 2 106 C-0.07179079 102.89231381 -0.24907628 102.2458123 -0.24050903 98.72895813 C-0.24325836 97.85817627 -0.24600769 96.98739441 -0.24884033 96.09022522 C-0.24164978 95.13788498 -0.23445923 94.18554474 -0.22705078 93.2043457 C-0.22734283 92.19928986 -0.22763489 91.19423401 -0.22793579 90.15872192 C-0.22654055 86.83098773 -0.21097005 83.50347641 -0.1953125 80.17578125 C-0.19158307 77.87078473 -0.18873577 75.56578663 -0.18673706 73.26078796 C-0.17909514 67.18952062 -0.1594418 61.11834873 -0.1373291 55.04711914 C-0.11328884 47.76506269 -0.10409236 40.48297435 -0.09242249 33.20088959 C-0.0730178 22.13385997 -0.03469896 11.06703987 0 0 Z " fill="#343434" transform="translate(307,652)"/>
<path d="M0 0 C22.11 0 44.22 0 67 0 C67 5.61 67 11.22 67 17 C51.49 17 35.98 17 20 17 C20 25.25 20 33.5 20 42 C34.19 42 48.38 42 63 42 C63 47.94 63 53.88 63 60 C53.1 60 43.2 60 33 60 C32.67 59.34 32.34 58.68 32 58 C41.57 58 51.14 58 61 58 C61 53.38 61 48.76 61 44 C59.19813232 44.00785522 59.19813232 44.00785522 57.35986328 44.01586914 C52.91325624 44.03393653 48.46665247 44.0454384 44.02001953 44.05493164 C42.09358169 44.05996787 40.16714769 44.06679712 38.24072266 44.07543945 C35.47557632 44.08753608 32.71048042 44.09323533 29.9453125 44.09765625 C28.6483696 44.10539818 28.6483696 44.10539818 27.32522583 44.11329651 C21.22774341 44.11387171 21.22774341 44.11387171 19 43 C19 34.09 19 25.18 19 16 C34.18 16 49.36 16 65 16 C65 11.05 65 6.1 65 1 C43.88 1 22.76 1 1 1 C1 34 1 67 1 101 C22.45 101 43.9 101 66 101 C66.33 100.34 66.66 99.68 67 99 C67.33 99.99 67.66 100.98 68 102 C45.56 102 23.12 102 0 102 C0 68.34 0 34.68 0 0 Z " fill="#FDFDFD" transform="translate(310,654)"/>
<path d="M0 0 C27.06 0 54.12 0 82 0 C81.67 4.29 81.34 8.58 81 13 C80.67 13 80.34 13 80 13 C80 9.7 80 6.4 80 3 C54.26 3 28.52 3 2 3 C2 7.29 2 11.58 2 16 C11.24 16 20.48 16 30 16 C30.33 16.99 30.66 17.98 31 19 C20.77 19 10.54 19 0 19 C0 12.73 0 6.46 0 0 Z " fill="#E6E6E6" transform="translate(393,653)"/>
<path d="M0 0 C6.93 0 13.86 0 21 0 C21 33.66 21 67.32 21 102 C14.4 102 7.8 102 1 102 C1.99 101.01 1.99 101.01 3 100 C7.95 100.33 12.9 100.66 18 101 C18 68.66 18 36.32 18 3 C12.39 3 6.78 3 1 3 C0.67 2.01 0.34 1.02 0 0 Z " fill="#E6E6E6" transform="translate(696,653)"/>
<path d="M0 0 C36.96 0 73.92 0 112 0 C111.67 3.63 111.34 7.26 111 11 C110.67 11 110.34 11 110 11 C110 8.03 110 5.06 110 2 C108.68090637 2.00444122 107.36181274 2.00888245 106.00274658 2.01345825 C93.58357604 2.05396675 81.16441887 2.08396634 68.7451973 2.10362434 C62.36005148 2.11407037 55.97495892 2.12824461 49.58984375 2.15087891 C43.43015773 2.17257794 37.27052299 2.18456245 31.1108017 2.18975449 C28.75842227 2.19345552 26.4060457 2.20068252 24.05368805 2.21146011 C20.76391998 2.22593581 17.474365 2.22797957 14.18457031 2.22705078 C12.71937454 2.23783661 12.71937454 2.23783661 11.22457886 2.24884033 C10.32717987 2.246091 9.42978088 2.24334167 8.50518799 2.24050903 C7.72719471 2.24235262 6.94920143 2.24419621 6.1476326 2.24609566 C4 2 4 2 0 0 Z " fill="#161616" transform="translate(428,567)"/>
<path d="M0 0 C24.255 0.495 24.255 0.495 49 1 C49 1.33 49 1.66 49 2 C33.49 2 17.98 2 2 2 C2 6.95 2 11.9 2 17 C11.57 17 21.14 17 31 17 C31 17.33 31 17.66 31 18 C20.77 18 10.54 18 0 18 C0 12.06 0 6.12 0 0 Z " fill="#FEFEFE" transform="translate(734,653)"/>
<path d="M0 0 C10.23 0 20.46 0 31 0 C31 0.66 31 1.32 31 2 C21.43 2 11.86 2 2 2 C2 8.6 2 15.2 2 22 C1.34 22.33 0.68 22.66 0 23 C0 15.41 0 7.82 0 0 Z " fill="#232323" transform="translate(785,671)"/>
<path d="M0 0 C15.51 0 31.02 0 47 0 C47 0.33 47 0.66 47 1 C37.76 1.33 28.52 1.66 19 2 C19 2.33 19 2.66 19 3 C13.72 3 8.44 3 3 3 C3 6.96 3 10.92 3 15 C2.67 15 2.34 15 2 15 C1.67 18.3 1.34 21.6 1 25 C0.67 25 0.34 25 0 25 C0 16.75 0 8.5 0 0 Z " fill="#515050" transform="translate(330,671)"/>
<path d="M0 0 C2.64 0 5.28 0 8 0 C7.01 0.66 6.02 1.32 5 2 C4.01 1.67 3.02 1.34 2 1 C2.33 7.93 2.66 14.86 3 22 C17.85 22.33 32.7 22.66 48 23 C48 23.33 48 23.66 48 24 C32.16 24 16.32 24 0 24 C0 16.08 0 8.16 0 0 Z " fill="#2C2C2C" transform="translate(330,714)"/>
<path d="M0 0 C6.6 0 13.2 0 20 0 C20 0.66 20 1.32 20 2 C14.06 2 8.12 2 2 2 C2 10.91 2 19.82 2 29 C1.34 28.67 0.68 28.34 0 28 C0 18.76 0 9.52 0 0 Z " fill="#010101" transform="translate(513,671)"/>
<path d="M0 0 C0.66 0.33 1.32 0.66 2 1 C0.58480285 3.0343459 -0.54982123 3.90410393 -2.98046875 4.421875 C-4.98176954 4.66273952 -6.9909944 4.83532741 -9 5 C-9 5.66 -9 6.32 -9 7 C-12.74993479 7.05811773 -16.49975352 7.09363593 -20.25 7.125 C-21.84521484 7.15013672 -21.84521484 7.15013672 -23.47265625 7.17578125 C-25.00986328 7.18544922 -25.00986328 7.18544922 -26.578125 7.1953125 C-27.99206543 7.21102295 -27.99206543 7.21102295 -29.43457031 7.22705078 C-32.09951941 6.99119213 -33.71863092 6.35661659 -36 5 C-35.00371582 4.98598145 -35.00371582 4.98598145 -33.98730469 4.97167969 C-17.61281492 4.95687115 -17.61281492 4.95687115 -1.9765625 0.7421875 C-1.32429687 0.49726562 -0.67203125 0.25234375 0 0 Z " fill="#1C1C1C" transform="translate(652,753)"/>
<path d="M0 0 C0.33 0 0.66 0 1 0 C1 9.24 1 18.48 1 28 C6.94 28 12.88 28 19 28 C19.33 27.34 19.66 26.68 20 26 C20 27.32 20 28.64 20 30 C13.07 30 6.14 30 -1 30 C-0.67 20.1 -0.34 10.2 0 0 Z " fill="#DBDBDA" transform="translate(765,727)"/>
<path d="M0 0 C0.99 0 1.98 0 3 0 C3 0.66 3 1.32 3 2 C3.58265625 2.23976563 4.1653125 2.47953125 4.765625 2.7265625 C7.44538042 4.2538357 8.86110383 5.94526604 10.75 8.375 C11.36359375 9.14585937 11.9771875 9.91671875 12.609375 10.7109375 C14 13 14 13 14 17 C14.66 17 15.32 17 16 17 C16.16702456 21.34263862 16.12999997 24.20960634 14 28 C13.91363281 27.32195313 13.82726562 26.64390625 13.73828125 25.9453125 C12.6000413 18.40577813 11.05621661 10.34129903 4.89453125 5.265625 C2.96770863 4.05155623 1.05867085 2.97058924 -1 2 C-0.67 1.34 -0.34 0.68 0 0 Z " fill="#F1F1F1" transform="translate(257,672)"/>
<path d="M0 0 C2.44531616 3.66797424 2.23819639 5.51511004 2.1875 9.875 C2.18105469 11.08929687 2.17460938 12.30359375 2.16796875 13.5546875 C2.02448639 16.49774427 1.67933242 19.14136918 1 22 C0.01 22 -0.98 22 -2 22 C-1.86145912 18.70798357 -1.71292976 15.41649291 -1.5625 12.125 C-1.50352539 10.71927734 -1.50352539 10.71927734 -1.44335938 9.28515625 C-1.40146484 8.38925781 -1.35957031 7.49335937 -1.31640625 6.5703125 C-1.27974854 5.74289551 -1.24309082 4.91547852 -1.20532227 4.06298828 C-1 2 -1 2 0 0 Z " fill="#ECEBEB" transform="translate(566,675)"/>
<path d="M0 0 C0.33 0 0.66 0 1 0 C1 3.96 1 7.92 1 12 C7.27 12 13.54 12 20 12 C20 12.66 20 13.32 20 14 C13.07 14 6.14 14 -1 14 C-0.67 9.38 -0.34 4.76 0 0 Z " fill="#DBDBDB" transform="translate(493,743)"/>
<path d="M0 0 C2.88704861 2.45000738 2.9863294 2.85168137 3.36328125 6.94140625 C3.36195441 8.48186327 3.34445282 10.02237384 3.3125 11.5625 C3.31572266 12.34302734 3.31894531 13.12355469 3.32226562 13.92773438 C3.26716981 19.73283019 3.26716981 19.73283019 1 22 C-0.20029908 19.59940183 -0.11459743 18.10639351 -0.09765625 15.4296875 C-0.09443359 14.53378906 -0.09121094 13.63789062 -0.08789062 12.71484375 C-0.07951172 11.77769531 -0.07113281 10.84054687 -0.0625 9.875 C-0.05798828 8.93011719 -0.05347656 7.98523438 -0.04882812 7.01171875 C-0.03702357 4.67441613 -0.02055759 2.33723939 0 0 Z " fill="#EBEBEB" transform="translate(583,695)"/>
<path d="M0 0 C7.26 0 14.52 0 22 0 C22.33 0.99 22.66 1.98 23 3 C15.41 3 7.82 3 0 3 C0 2.01 0 1.02 0 0 Z " fill="#DBDBDB" transform="translate(548,754)"/>
<path d="M0 0 C0.99 0.495 0.99 0.495 2 1 C2.33333333 2.66666667 2.66666667 4.33333333 3 6 C3.66 6.33 4.32 6.66 5 7 C6.10348459 10.08142868 6.10523224 13.00234962 6.0625 16.25 C6.05347656 17.14203125 6.04445313 18.0340625 6.03515625 18.953125 C6.02355469 19.62859375 6.01195312 20.3040625 6 21 C3 19 3 19 2.3046875 16.42578125 C2.09199219 14.88470703 2.09199219 14.88470703 1.875 13.3125 C1.7203125 12.24128906 1.565625 11.17007812 1.40625 10.06640625 C1.2721875 9.05449219 1.138125 8.04257812 1 7 C0.79254898 5.58320386 0.58442186 4.16650616 0.375 2.75 C0.25125 1.8425 0.1275 0.935 0 0 Z " fill="#161516" transform="translate(482,436)"/>
<path d="M0 0 C1.07765625 0.01804687 2.1553125 0.03609375 3.265625 0.0546875 C4.49539063 0.08949219 4.49539063 0.08949219 5.75 0.125 C3.36357615 2.51142385 2.08221616 2.64503049 -1.1875 3.25 C-2.50041016 3.50136719 -2.50041016 3.50136719 -3.83984375 3.7578125 C-6.25 4.125 -6.25 4.125 -9.25 4.125 C-10.58981486 4.4312434 -11.92511887 4.75951555 -13.25 5.125 C-9.21669172 0.6883609 -5.95468991 -0.12944978 0 0 Z M-15.25 5.125 C-14.59 5.455 -13.93 5.785 -13.25 6.125 C-15.23 7.115 -15.23 7.115 -17.25 8.125 C-16.59 7.135 -15.93 6.145 -15.25 5.125 Z " fill="#EDECED" transform="translate(564.25,426.875)"/>
<path d="M0 0 C0.33 0 0.66 0 1 0 C1.02710123 2.5625718 1.04688771 5.12485365 1.0625 7.6875 C1.07087891 8.40873047 1.07925781 9.12996094 1.08789062 9.87304688 C1.10543632 13.71555382 0.93524221 17.26639526 0 21 C-0.99 21 -1.98 21 -3 21 C-2.88618103 18.06167355 -2.75943449 15.1248935 -2.625 12.1875 C-2.5940625 11.35412109 -2.563125 10.52074219 -2.53125 9.66210938 C-2.49257813 8.85966797 -2.45390625 8.05722656 -2.4140625 7.23046875 C-2.3826416 6.49207764 -2.3512207 5.75368652 -2.31884766 4.99291992 C-2 3 -2 3 0 0 Z " fill="#111010" transform="translate(679,698)"/>
<path d="M0 0 C5.28 0 10.56 0 16 0 C16 0.33 16 0.66 16 1 C11.29654425 2.21379503 6.82569313 2.07202527 2 2 C1.67 5.3 1.34 8.6 1 12 C0.67 12 0.34 12 0 12 C0 8.04 0 4.08 0 0 Z " fill="#020202" transform="translate(654,496)"/>
<path d="M0 0 C0.66 0.33 1.32 0.66 2 1 C2 1.66 2 2.32 2 3 C0.41925436 3.81752303 -1.16471223 4.62881997 -2.75 5.4375 C-3.63171875 5.88996094 -4.5134375 6.34242188 -5.421875 6.80859375 C-7.64198566 7.83455398 -9.61444619 8.51508603 -12 9 C-12 8.01 -12 7.02 -12 6 C-10.04669132 4.96958487 -8.08718472 3.9509107 -6.125 2.9375 C-5.03445313 2.36902344 -3.94390625 1.80054688 -2.8203125 1.21484375 C-1.42425781 0.61349609 -1.42425781 0.61349609 0 0 Z " fill="#F0F0F0" transform="translate(614,653)"/>
<path d="M0 0 C4.95 0 9.9 0 15 0 C15 3.96 15 7.92 15 12 C14.67 12 14.34 12 14 12 C13.67 8.7 13.34 5.4 13 2 C11.5975 2.04125 10.195 2.0825 8.75 2.125 C4.8400791 2.23999767 3.74368742 1.87184371 0 0 Z " fill="#030203" transform="translate(356,496)"/>
<path d="M0 0 C1.43859375 -0.02126953 1.43859375 -0.02126953 2.90625 -0.04296875 C5.5 0.1875 5.5 0.1875 8.5 2.1875 C5.7889923 3.54300385 3.58660831 3.35667207 0.5625 3.375 C-0.49839844 3.38917969 -1.55929687 3.40335938 -2.65234375 3.41796875 C-5.5 3.1875 -5.5 3.1875 -8.5 1.1875 C-5.43301363 0.16517121 -3.21335122 0.0215951 0 0 Z " fill="#1A1A1A" transform="translate(541.5,229.8125)"/>
<path d="M0 0 C0.33 0 0.66 0 1 0 C1.1897197 5.40701133 1.04590033 9.88524919 -1 15 C-3.078125 16.1953125 -3.078125 16.1953125 -5 17 C-4.54971412 14.72755724 -4.08949383 12.45708123 -3.625 10.1875 C-3.36976563 8.92292969 -3.11453125 7.65835938 -2.8515625 6.35546875 C-2 3 -2 3 0 0 Z " fill="#EAEAEA" transform="translate(273,708)"/>
<path d="M0 0 C5.61 0 11.22 0 17 0 C16.67 0.99 16.34 1.98 16 3 C13.89646505 3.0810206 11.79204048 3.13919907 9.6875 3.1875 C8.51574219 3.22230469 7.34398437 3.25710938 6.13671875 3.29296875 C3 3 3 3 0 0 Z " fill="#F0F0F0" transform="translate(236,754)"/>
<path d="M0 0 C5.77807024 -0.2358396 10.51324804 0.13216954 16 2 C15.34 2.66 14.68 3.32 14 4 C12.171875 3.62890625 12.171875 3.62890625 10 3 C8.41788427 2.93451508 6.83329919 2.91421619 5.25 2.9375 C4.05117188 2.95103516 4.05117188 2.95103516 2.828125 2.96484375 C1.92320312 2.98224609 1.92320312 2.98224609 1 3 C0.67 2.01 0.34 1.02 0 0 Z " fill="#1B1B1B" transform="translate(625,669)"/>
<path d="M0 0 C0.99 0 1.98 0 3 0 C2.77139942 1.46184058 2.51629608 2.91955419 2.25 4.375 C2.11078125 5.18710937 1.9715625 5.99921875 1.828125 6.8359375 C1 9 1 9 -1 10.15625 C-1.66 10.4346875 -2.32 10.713125 -3 11 C-4.26804566 13.0335948 -4.26804566 13.0335948 -5 15 C-5 11.37149374 -3.93046332 9.13832722 -2.5 5.8125 C-2.0359375 4.72582031 -1.571875 3.63914062 -1.09375 2.51953125 C-0.7328125 1.68808594 -0.371875 0.85664063 0 0 Z " fill="#141414" transform="translate(608,273)"/>
<path d="M0 0 C2.76276177 0.52268466 5.3260876 1.10869587 8 2 C8 2.66 8 3.32 8 4 C7.27981689 3.83701416 6.55963379 3.67402832 5.81762695 3.50610352 C3.10597883 3.01903597 0.66780647 2.88547358 -2.08203125 2.90234375 C-3.01337891 2.90556641 -3.94472656 2.90878906 -4.90429688 2.91210938 C-5.86400391 2.92048828 -6.82371094 2.92886719 -7.8125 2.9375 C-8.79154297 2.94201172 -9.77058594 2.94652344 -10.77929688 2.95117188 C-13.18626111 2.96291316 -15.59309857 2.97933581 -18 3 C-18 2.67 -18 2.34 -18 2 C-12.06 2 -6.12 2 0 2 C0 1.34 0 0.68 0 0 Z " fill="#191919" transform="translate(533,671)"/>
<path d="M0 0 C5.64913063 1.65707832 10.26300637 3.47762012 15 7 C14.67 7.66 14.34 8.32 14 9 C13.34 9 12.68 9 12 9 C11.67 8.34 11.34 7.68 11 7 C8.68745988 5.95281202 6.3514852 4.95653635 4 4 C2.65986503 3.34711373 1.32258472 2.68774405 0 2 C0 1.34 0 0.68 0 0 Z " fill="#ECECEC" transform="translate(645,653)"/>
<path d="M0 0 C0.66 0.33 1.32 0.66 2 1 C1.38801624 4.43950364 0.07941153 6.51564485 -2.0625 9.25 C-2.61035156 9.95640625 -3.15820312 10.6628125 -3.72265625 11.390625 C-4.14417969 11.92171875 -4.56570313 12.4528125 -5 13 C-6.32 12.67 -7.64 12.34 -9 12 C-8.51789062 11.46890625 -8.03578125 10.9378125 -7.5390625 10.390625 C-6.90742187 9.68421875 -6.27578125 8.9778125 -5.625 8.25 C-4.68527344 7.20585938 -4.68527344 7.20585938 -3.7265625 6.140625 C-2.12494817 4.15491312 -1.03479932 2.32045907 0 0 Z " fill="#121212" transform="translate(670,735)"/>
<path d="M0 0 C0.99 0 1.98 0 3 0 C3.34833144 4.87664009 2.41685712 7.77050005 0 12 C-0.99 12 -1.98 12 -3 12 C-2.01 8.04 -1.02 4.08 0 0 Z " fill="#151415" transform="translate(675,721)"/>
<path d="M0 0 C1.09655844 3.28967533 0.90592971 4.66072146 0.25 8 C0.09015625 8.86625 -0.0696875 9.7325 -0.234375 10.625 C-1.06024653 13.18688719 -1.95808375 14.29466335 -4 16 C-4.16890456 11.01731555 -4.1542492 7.57777956 -2 3 C-2 2.34 -2 1.68 -2 1 C-1.34 0.67 -0.68 0.34 0 0 Z " fill="#161616" transform="translate(585,682)"/>
<path d="M0 0 C4.96916636 0.51405169 9.29026351 1.23384882 14 3 C13.01 4.485 13.01 4.485 12 6 C6.06 4.515 6.06 4.515 0 3 C0 2.01 0 1.02 0 0 Z " fill="#161616" transform="translate(595,344)"/>
<path d="M0 0 C0 0.66 0 1.32 0 2 C-1.71641978 3.56197114 -3.49938639 5.05139042 -5.3125 6.5 C-6.79169922 7.69109375 -6.79169922 7.69109375 -8.30078125 8.90625 C-11 11 -11 11 -14 13 C-12.73882275 9.11137013 -11.54735833 7.10624401 -8 5 C-7.34 5 -6.68 5 -6 5 C-6 4.34 -6 3.68 -6 3 C-2.53846154 0 -2.53846154 0 0 0 Z " fill="#EFEFEF" transform="translate(575,574)"/>
<path d="M0 0 C1.6837311 0.62231167 3.34801907 1.29773136 5 2 C7.26296407 2.28121242 9.53630662 2.48704889 11.8125 2.625 C13.55466797 2.73714844 13.55466797 2.73714844 15.33203125 2.8515625 C16.21246094 2.90054688 17.09289062 2.94953125 18 3 C18 3.33 18 3.66 18 4 C15.4380143 4.2498764 12.87765869 4.47541116 10.3125 4.6875 C9.2306543 4.79674805 9.2306543 4.79674805 8.12695312 4.90820312 C3.44574473 5.2715846 0.74738294 4.87521097 -3 2 C-2.01 1.34 -1.02 0.68 0 0 Z " fill="#151515" transform="translate(618,734)"/>
<path d="M0 0 C0 0.66 0 1.32 0 2 C-1.15628906 2.41572266 -1.15628906 2.41572266 -2.3359375 2.83984375 C-3.33882813 3.20207031 -4.34171875 3.56429687 -5.375 3.9375 C-6.87160156 4.47697266 -6.87160156 4.47697266 -8.3984375 5.02734375 C-10.93504165 5.92349292 -10.93504165 5.92349292 -13 7 C-12.67 5.68 -12.34 4.36 -12 3 C-10.68 3 -9.36 3 -8 3 C-7.67 2.01 -7.34 1.02 -7 0 C-4.05610218 -1.17755913 -3.10046087 -1.03348696 0 0 Z " fill="#101010" transform="translate(505,199)"/>
<path d="M0 0 C2.46301423 2.46301423 2.76766521 4.27360036 3.625 7.625 C3.88539063 8.62789063 4.14578125 9.63078125 4.4140625 10.6640625 C4.60742188 11.43492187 4.80078125 12.20578125 5 13 C4.01 13.33 3.02 13.66 2 14 C2.33 12.68 2.66 11.36 3 10 C2.34 10 1.68 10 1 10 C0.63883954 8.5225254 0.28624952 7.04295325 -0.0625 5.5625 C-0.25972656 4.73878906 -0.45695313 3.91507812 -0.66015625 3.06640625 C-0.82837891 2.04353516 -0.82837891 2.04353516 -1 1 C-0.67 0.67 -0.34 0.34 0 0 Z " fill="#EAEAEA" transform="translate(647,386)"/>
<path d="M0 0 C2.31 0 4.62 0 7 0 C7 0.33 7 0.66 7 1 C10.63 1.33 14.26 1.66 18 2 C18 2.33 18 2.66 18 3 C8.595 3.495 8.595 3.495 -1 4 C-0.67 2.68 -0.34 1.36 0 0 Z " fill="#484847" transform="translate(353,424)"/>
<path d="M0 0 C3.63 0 7.26 0 11 0 C11.33 0.66 11.66 1.32 12 2 C9.47524538 3.26237731 7.68799534 3.09856404 4.875 3.0625 C3.96492188 3.05347656 3.05484375 3.04445313 2.1171875 3.03515625 C1.41851562 3.02355469 0.71984375 3.01195312 0 3 C0 2.01 0 1.02 0 0 Z " fill="#E9E9EA" transform="translate(428,346)"/>
<path d="M0 0 C0.33 0 0.66 0 1 0 C1.33 6.93 1.66 13.86 2 21 C1.01 21 0.02 21 -1 21 C-0.67 14.07 -0.34 7.14 0 0 Z " fill="#BDBDBD" transform="translate(604,699)"/>
<path d="M0 0 C5.53846154 0.61538462 5.53846154 0.61538462 7.875 2.5625 C8.431875 3.2740625 8.431875 3.2740625 9 4 C8.67 4.66 8.34 5.32 8 6 C4.7 5.01 1.4 4.02 -2 3 C-1.34 2.67 -0.68 2.34 0 2 C0 1.34 0 0.68 0 0 Z " fill="#EBEBEB" transform="translate(593,367)"/>
<path d="M0 0 C0 3 0 3 0 3 Z M-2 3 C-0.6390377 5.7219246 -1.29633752 7.1831957 -1.9375 10.125 C-2.13214844 11.03507812 -2.32679688 11.94515625 -2.52734375 12.8828125 C-2.68332031 13.58148438 -2.83929687 14.28015625 -3 15 C-3.99 15 -4.98 15 -6 15 C-5.5317879 10.22423661 -4.75668002 6.95523655 -2 3 Z " fill="#E2E2E2" transform="translate(546,435)"/>
<path d="M0 0 C0.99 1.32 1.98 2.64 3 4 C-2.75 9 -2.75 9 -5 9 C-3.7508258 5.54074837 -2.32472205 2.85306797 0 0 Z " fill="#121212" transform="translate(404,387)"/>
<path d="M0 0 C0.66 0 1.32 0 2 0 C2 0.99 2 1.98 2 3 C2.66 3 3.32 3 4 3 C4.17700355 7.60209225 4.10814567 9.78370866 2 14 C1.34 9.38 0.68 4.76 0 0 Z " fill="#E8E9E9" transform="translate(269,686)"/>
<path d="M0 0 C3.63 0 7.26 0 11 0 C11 0.99 11 1.98 11 3 C7.04 3 3.08 3 -1 3 C-0.67 2.01 -0.34 1.02 0 0 Z " fill="#121212" transform="translate(561,478)"/>
<path d="M0 0 C0.66 0 1.32 0 2 0 C3.98 3.63 5.96 7.26 8 11 C7.01 10.67 6.02 10.34 5 10 C5 9.34 5 8.68 5 8 C4.01 7.67 3.02 7.34 2 7 C1.4375 5.0625 1.4375 5.0625 1 3 C0.34 2.34 -0.32 1.68 -1 1 C-0.67 0.67 -0.34 0.34 0 0 Z " fill="#EAEAEA" transform="translate(639,374)"/>
<path d="M0 0 C0.33 0.99 0.66 1.98 1 3 C-2.3 3.66 -5.6 4.32 -9 5 C-8.67 4.01 -8.34 3.02 -8 2 C-5.27366306 0.89786379 -2.95855967 0 0 0 Z " fill="#F1F1F1" transform="translate(263,751)"/>
<path d="M0 0 C11.52164009 -0.3690205 11.52164009 -0.3690205 17 2 C14 4 14 4 11 4 C10.67 3.34 10.34 2.68 10 2 C7.64400765 1.53248212 7.64400765 1.53248212 4.9375 1.375 C4.01839844 1.30023437 3.09929687 1.22546875 2.15234375 1.1484375 C1.08693359 1.07496094 1.08693359 1.07496094 0 1 C0 0.67 0 0.34 0 0 Z " fill="#141414" transform="translate(246,651)"/>
<path d="M0 0 C4.10839064 1.45002023 7.50344613 3.3979134 11 6 C11 6.66 11 7.32 11 8 C6.01780786 6.72548573 3.37464528 4.87091665 0 1 C0 0.67 0 0.34 0 0 Z " fill="#EEEEEE" transform="translate(408,532)"/>
<path d="M0 0 C0.33 0.66 0.66 1.32 1 2 C-4.28 1.67 -9.56 1.34 -15 1 C-15 0.67 -15 0.34 -15 0 C-13.25093341 -0.19601608 -11.50068154 -0.38147403 -9.75 -0.5625 C-8.77546875 -0.66691406 -7.8009375 -0.77132813 -6.796875 -0.87890625 C-4.21340534 -0.99076038 -2.40387135 -0.92074889 0 0 Z " fill="#EFEFF0" transform="translate(600,348)"/>
<path d="M0 0 C0.66 0.66 1.32 1.32 2 2 C1.625 5.625 1.625 5.625 1 9 C0.01 9 -0.98 9 -2 9 C-1.34 6.03 -0.68 3.06 0 0 Z " fill="#ECECEC" transform="translate(288,720)"/>
<path d="M0 0 C1.33333333 1.33333333 2.66666667 2.66666667 4 4 C4.8353125 4.7425 4.8353125 4.7425 5.6875 5.5 C7.24396723 7.2788197 7.60265701 8.69541066 8 11 C7.01 11 6.02 11 5 11 C4.16151196 9.54462432 3.32936066 8.08559627 2.5 6.625 C1.80390625 5.40683594 1.80390625 5.40683594 1.09375 4.1640625 C0 2 0 2 0 0 Z " fill="#121212" transform="translate(282,668)"/>
<path d="M0 0 C0.99 0 1.98 0 3 0 C4.03039555 4.53374042 4.17766075 5.64467851 2 10 C1.34 6.7 0.68 3.4 0 0 Z " fill="#E8E9E8" transform="translate(627,398)"/>
<path d="M0 0 C0.66 0.33 1.32 0.66 2 1 C1.67 3.64 1.34 6.28 1 9 C0.01 9.33 -0.98 9.66 -2 10 C-1.54177532 6.53058454 -1.10868317 3.32604951 0 0 Z " fill="#E6E6E6" transform="translate(475,226)"/>
<path d="M0 0 C0.99 0 1.98 0 3 0 C3 2.97 3 5.94 3 9 C2.01 8.67 1.02 8.34 0 8 C0 5.36 0 2.72 0 0 Z " fill="#1A1A1A" transform="translate(544,682)"/>
<path d="M0 0 C0 0.99 0 1.98 0 3 C-2.31 3.33 -4.62 3.66 -7 4 C-7.33 3.01 -7.66 2.02 -8 1 C-5.23735711 0.40267181 -2.83967231 0 0 0 Z " fill="#1B1B1C" transform="translate(603,565)"/>
<path d="M0 0 C0.99 0 1.98 0 3 0 C3.33 2.64 3.66 5.28 4 8 C3.01 7.67 2.02 7.34 1 7 C0.67 4.69 0.34 2.38 0 0 Z " fill="#F0EFF0" transform="translate(481,443)"/>
<path d="M0 0 C0.99 0.33 1.98 0.66 3 1 C0.63707344 3.52588702 -0.66462511 4.88820837 -4 6 C-4.33 5.01 -4.66 4.02 -5 3 C-2.6875 1.4375 -2.6875 1.4375 0 0 Z " fill="#161515" transform="translate(260,730)"/>
<path d="M0 0 C1.25556424 3.90619985 0.81588958 6.36822084 -1 10 C-1.66 10 -2.32 10 -3 10 C-2.39009109 6.44219804 -1.4216319 3.3171411 0 0 Z " fill="#131313" transform="translate(267,719)"/>
<path d="M0 0 C2.97 0.495 2.97 0.495 6 1 C2.47320901 3.35119399 0.97120515 3.21443452 -3.1875 3.125 C-4.27417969 3.10695313 -5.36085938 3.08890625 -6.48046875 3.0703125 C-7.72763672 3.03550781 -7.72763672 3.03550781 -9 3 C-9 2.67 -9 2.34 -9 2 C-4.545 1.505 -4.545 1.505 0 1 C0 0.67 0 0.34 0 0 Z " fill="#161615" transform="translate(462,478)"/>
<path d="M0 0 C0.99 0 1.98 0 3 0 C3 0.66 3 1.32 3 2 C3.763125 1.79375 4.52625 1.5875 5.3125 1.375 C8 1 8 1 11 3 C7.04 3 3.08 3 -1 3 C-0.67 2.01 -0.34 1.02 0 0 Z " fill="#151516" transform="translate(537,275)"/>
<path d="M0 0 C0.66 0.33 1.32 0.66 2 1 C0.35 1.66 -1.3 2.32 -3 3 C-2.01 2.01 -1.02 1.02 0 0 Z M-5 3 C-3.68 3.66 -2.36 4.32 -1 5 C-2.32 5.33 -3.64 5.66 -5 6 C-5 5.01 -5 4.02 -5 3 Z M-8 5 C-7.34 5.33 -6.68 5.66 -6 6 C-6.99 6 -7.98 6 -9 6 C-8.67 5.67 -8.34 5.34 -8 5 Z " fill="#E7E7E7" transform="translate(496,203)"/>
<path d="M0 0 C1.32 0.33 2.64 0.66 4 1 C4.33 2.65 4.66 4.3 5 6 C3.68 5.67 2.36 5.34 1 5 C0.67 3.35 0.34 1.7 0 0 Z " fill="#EBEBEC" transform="translate(603,720)"/>
<path d="M0 0 C0 0.99 0 1.98 0 3 C-0.99 3.33 -1.98 3.66 -3 4 C-3 3.34 -3 2.68 -3 2 C-2.01 1.34 -1.02 0.68 0 0 Z M-5 5 C-4.34 5.66 -3.68 6.32 -3 7 C-4.98 7.66 -6.96 8.32 -9 9 C-9.33 8.34 -9.66 7.68 -10 7 C-8.35 6.34 -6.7 5.68 -5 5 Z " fill="#EDECEC" transform="translate(547,693)"/>
<path d="M0 0 C0.33 1.32 0.66 2.64 1 4 C-2.63 3.34 -6.26 2.68 -10 2 C-6.00889681 0.0044484 -4.30013434 -0.19546065 0 0 Z " fill="#222122" transform="translate(546,652)"/>
<path d="M0 0 C-2 3 -2 3 -5.125 3.6875 C-6.07375 3.790625 -7.0225 3.89375 -8 4 C-8 3.01 -8 2.02 -8 1 C-2.25 -1.125 -2.25 -1.125 0 0 Z " fill="#131313" transform="translate(612,563)"/>
<path d="M0 0 C4.75 0.75 4.75 0.75 7 3 C6.34 3.66 5.68 4.32 5 5 C3.02 4.01 1.04 3.02 -1 2 C-0.67 1.34 -0.34 0.68 0 0 Z " fill="#EEEEEE" transform="translate(407,557)"/>
<path d="M0 0 C0 0.99 0 1.98 0 3 C-1.98 3.33 -3.96 3.66 -6 4 C-6 3.01 -6 2.02 -6 1 C-3 0 -3 0 0 0 Z " fill="#121112" transform="translate(432,370)"/>
<path d="M0 0 C0 0.99 0 1.98 0 3 C-1.65 3.66 -3.3 4.32 -5 5 C-4.1875 3.0625 -4.1875 3.0625 -3 1 C-2.01 0.67 -1.02 0.34 0 0 Z M-6 5 C-6 5.99 -6 6.98 -6 8 C-6.99 8.495 -6.99 8.495 -8 9 C-7.34 7.68 -6.68 6.36 -6 5 Z " fill="#EBEBEB" transform="translate(391,368)"/>
<path d="M0 0 C0.66 0 1.32 0 2 0 C3.39300182 1.95890881 4.72245446 3.9639118 6 6 C6.99 7.485 6.99 7.485 8 9 C4.48144841 7.59257936 3.61387166 6.33533477 2 3 C1.01 2.67 0.02 2.34 -1 2 C-0.67 1.34 -0.34 0.68 0 0 Z " fill="#131312" transform="translate(477,284)"/>
<path d="M0 0 C7.75 0.75 7.75 0.75 10 3 C9.34 3.66 8.68 4.32 8 5 C7.01 4.67 6.02 4.34 5 4 C4.67 3.34 4.34 2.68 4 2 C1.98330173 0.86649466 1.98330173 0.86649466 0 0 Z " fill="#131312" transform="translate(575,198)"/>
<path d="M0 0 C0.66 0.33 1.32 0.66 2 1 C1.1875 2.9375 1.1875 2.9375 0 5 C-0.99 5.33 -1.98 5.66 -3 6 C-3 3 -3 3 -1.5 1.3125 C-0.7575 0.6628125 -0.7575 0.6628125 0 0 Z M-6 5 C-5.01 5.495 -5.01 5.495 -4 6 C-4.99 6.495 -4.99 6.495 -6 7 C-6 6.34 -6 5.68 -6 5 Z " fill="#121213" transform="translate(558,589)"/>
<path d="M0 0 C0.66 0.33 1.32 0.66 2 1 C0.02 5.455 0.02 5.455 -2 10 C-4 7 -4 7 -4 5 C-3.34 5 -2.68 5 -2 5 C-1.34 3.35 -0.68 1.7 0 0 Z " fill="#E3E3E3" transform="translate(399,392)"/>
<path d="M0 0 C1.32 0.33 2.64 0.66 4 1 C3.67 1.66 3.34 2.32 3 3 C2.77532169 4.53668865 2.59203195 6.07968054 2.4375 7.625 C2.35371094 8.44226563 2.26992188 9.25953125 2.18359375 10.1015625 C2.12300781 10.72804688 2.06242187 11.35453125 2 12 C1.67 12 1.34 12 1 12 C0.67 8.04 0.34 4.08 0 0 Z " fill="#1A1A1A" transform="translate(506,304)"/>
<path d="M0 0 C0.66 0.66 1.32 1.32 2 2 C0.515 4.475 0.515 4.475 -1 7 C-1.66 6.67 -2.32 6.34 -3 6 C-1.125 1.125 -1.125 1.125 0 0 Z " fill="#ECEDEC" transform="translate(482,214)"/>
<path d="M0 0 C0.66 0 1.32 0 2 0 C2 0.66 2 1.32 2 2 C2.99 2.33 3.98 2.66 5 3 C5 3.99 5 4.98 5 6 C4.01 6 3.02 6 2 6 C1.34 4.02 0.68 2.04 0 0 Z " fill="#EBEBEB" transform="translate(539,738)"/>
<path d="M0 0 C1.98 0.99 1.98 0.99 4 2 C4 2.99 4 3.98 4 5 C4.66 5 5.32 5 6 5 C6 5.66 6 6.32 6 7 C5.01 7 4.02 7 3 7 C0 2.77777778 0 2.77777778 0 0 Z " fill="#111111" transform="translate(666,665)"/>
<path d="M0 0 C1.9375 0.75 1.9375 0.75 4 2 C4.75 4.125 4.75 4.125 5 6 C4.01 6 3.02 6 2 6 C1.34 4.02 0.68 2.04 0 0 Z " fill="#121213" transform="translate(398,515)"/>
<path d="M0 0 C0.66 0 1.32 0 2 0 C2.99 2.31 3.98 4.62 5 7 C3.0625 6.3125 3.0625 6.3125 1 5 C0.25 2.375 0.25 2.375 0 0 Z " fill="#EFEFEF" transform="translate(586,437)"/>
<path d="M0 0 C-0.33 0.66 -0.66 1.32 -1 2 C-4.0625 2.625 -4.0625 2.625 -7 3 C-7 2.01 -7 1.02 -7 0 C-3.86650268 -1.04449911 -3.01031744 -0.93423645 0 0 Z " fill="#E3E3E3" transform="translate(427,348)"/>
<path d="M0 0 C2.125 0.375 2.125 0.375 4 1 C-0.39453125 5.00390625 -0.39453125 5.00390625 -2 6 C-2.99 5.67 -3.98 5.34 -5 5 C-3.33333333 3.33333333 -1.66666667 1.66666667 0 0 Z " fill="#111111" transform="translate(593,296)"/>
</svg>
